<?xml version="1.0" standalone="no"?>
<!DOCTYPE svg PUBLIC "-//W3C//DTD SVG 20010904//EN"
 "http://www.w3.org/TR/2001/REC-SVG-20010904/DTD/svg10.dtd">
<svg version="1.0" xmlns="http://www.w3.org/2000/svg"
 width="648.000000pt" height="648.000000pt" viewBox="0 0 648.000000 648.000000"
 preserveAspectRatio="xMidYMid meet">

<g transform="translate(0.000000,648.000000) scale(0.100000,-0.100000)"
fill="#000000" stroke="none">
<path d="M2965 6376 c-120 -19 -208 -52 -274 -102 -65 -48 -105 -98 -209 -254
-79 -121 -145 -189 -327 -338 -74 -62 -185 -168 -260 -250 -138 -150 -202
-202 -325 -269 -41 -22 -104 -57 -140 -78 -36 -21 -81 -46 -100 -57 -19 -11
-84 -50 -143 -87 -59 -36 -116 -70 -125 -76 -121 -69 -319 -204 -415 -284 -95
-78 -191 -150 -199 -151 -56 -2 143 351 284 505 54 59 33 50 288 126 97 29
158 57 230 104 126 82 213 175 434 468 33 43 90 113 128 155 75 81 108 136
108 177 0 22 -4 25 -35 25 -97 0 -318 -110 -540 -269 -377 -269 -667 -636
-918 -1161 -74 -155 -197 -442 -197 -460 0 -5 7 -10 15 -10 8 0 28 26 44 59
29 56 127 162 238 256 119 102 402 300 606 426 49 30 150 92 225 138 298 184
474 270 671 331 137 43 195 40 305 -15 83 -41 164 -100 206 -149 22 -26 47
-62 114 -162 22 -33 84 -102 130 -144 27 -25 30 -25 174 -22 132 2 189 -1 410
-24 46 -5 62 -4 62 6 0 7 -33 76 -72 154 -93 181 -160 255 -281 314 -161 79
-298 90 -446 37 -95 -35 -122 -32 -223 17 -95 47 -108 68 -48 79 411 74 635
103 810 102 143 0 144 0 350 -78 111 -42 300 -35 555 20 163 35 312 55 411 55
45 0 89 3 98 6 25 10 19 42 -11 60 -16 10 -95 61 -178 114 -229 149 -319 187
-465 197 -166 11 -305 -48 -591 -251 -55 -39 -88 -46 -369 -81 -519 -66 -767
-112 -972 -183 -62 -21 -80 -24 -90 -14 -10 10 17 42 137 160 88 86 174 161
209 181 81 48 176 70 351 81 197 12 329 28 390 47 127 39 227 122 375 313 76
97 137 149 221 186 73 33 76 56 9 66 -99 15 -553 18 -635 4z"/>
<path d="M4272 6229 c-69 -64 -30 -169 58 -155 98 15 94 149 -5 170 -23 5 -36
2 -53 -15z"/>
<path d="M4669 6051 c-38 -39 -39 -87 -3 -130 22 -27 32 -31 73 -31 67 0 101
32 101 94 0 37 -5 48 -31 70 -44 37 -101 36 -140 -3z"/>
<path d="M5042 5553 c-12 -30 -6 -125 11 -185 51 -169 200 -285 393 -304 53
-5 79 -14 114 -37 79 -54 144 -130 199 -232 28 -53 14 -69 -48 -60 -88 13
-306 57 -323 66 -9 5 -56 48 -105 97 -132 131 -267 204 -470 254 -164 40 -475
27 -675 -29 -83 -23 -91 -38 -33 -63 26 -11 94 -57 152 -103 171 -134 206
-154 346 -200 155 -52 395 -61 592 -21 79 16 102 16 210 5 66 -6 147 -18 180
-25 33 -8 100 -23 148 -34 49 -10 93 -24 100 -31 25 -25 -115 -121 -178 -121
-38 0 -142 -28 -186 -50 -20 -11 -53 -36 -72 -57 -36 -38 -101 -132 -95 -138
2 -2 53 -8 113 -14 210 -19 264 11 325 176 16 46 36 76 79 118 63 62 86 72
132 56 43 -15 59 -14 59 4 0 19 -41 46 -99 65 -31 10 -52 25 -66 47 -133 209
-154 237 -232 306 -87 77 -96 90 -113 178 -23 117 -88 180 -255 244 -52 20
-111 51 -133 71 -45 38 -59 42 -70 17z m215 -207 c99 -50 157 -136 92 -136
-52 0 -169 95 -169 137 0 29 16 29 77 -1z m-432 -350 c114 -30 228 -83 233
-108 5 -25 -36 -33 -161 -32 -137 2 -238 26 -379 92 -74 33 -93 53 -70 76 4 5
68 6 142 3 100 -4 161 -12 235 -31z m791 -577 c11 -18 -20 -40 -65 -46 -34 -5
-41 -3 -41 11 0 29 91 59 106 35z"/>
<path d="M2800 4344 c-169 -37 -273 -88 -373 -186 -59 -58 -83 -91 -115 -158
-75 -155 -74 -144 -79 -890 -3 -366 -2 -734 2 -817 l7 -153 282 0 c154 0 322
-5 371 -11 50 -6 182 -11 295 -11 181 0 221 3 338 27 175 34 247 57 366 117
79 40 114 65 176 127 86 86 110 126 135 222 21 78 14 184 -16 265 -25 65 -105
156 -185 210 -95 62 -296 133 -456 159 -21 3 -38 10 -38 15 0 5 33 19 72 31
40 12 115 41 167 66 76 36 108 59 170 121 65 65 81 89 105 150 26 66 28 82 24
170 -3 85 -8 106 -37 166 -120 248 -497 398 -994 395 -90 -1 -179 -7 -217 -15z
m42 -185 c193 -52 364 -197 473 -402 59 -110 75 -198 51 -279 -35 -120 -135
-184 -334 -214 -39 -5 -43 -8 -40 -32 3 -23 10 -27 65 -38 86 -17 144 -45 220
-106 123 -97 245 -283 288 -438 23 -80 26 -257 6 -313 -17 -50 -64 -103 -115
-130 -33 -18 -58 -22 -126 -22 -80 0 -90 3 -160 40 -48 26 -103 67 -152 115
l-78 76 0 474 c0 261 -5 507 -10 547 -12 93 -55 179 -120 240 -28 26 -105 82
-173 124 -145 90 -187 140 -187 218 0 146 159 202 392 140z"/>
<path d="M6227 4238 c-99 -153 -319 -311 -474 -340 -55 -10 -64 -9 -89 8 -70
50 -80 54 -135 54 -48 0 -59 -4 -84 -30 -22 -23 -29 -41 -33 -85 -4 -52 -3
-56 31 -90 31 -31 41 -35 87 -35 64 0 101 20 144 81 30 40 40 47 92 58 71 16
170 60 217 95 32 24 77 35 77 19 0 -15 -37 -62 -140 -178 -174 -197 -243 -259
-345 -310 -102 -51 -120 -53 -175 -25 -59 30 -106 27 -141 -11 -66 -71 -3
-189 102 -189 23 0 40 9 65 36 19 19 34 43 34 53 0 9 6 25 13 35 19 25 219
118 231 106 18 -18 -123 -336 -207 -467 l-27 -43 -73 0 c-39 -1 -82 -6 -94
-13 -86 -48 -98 -197 -22 -262 25 -20 41 -25 85 -25 67 0 105 18 134 65 19 32
21 44 16 103 -4 37 -7 78 -8 92 -1 15 23 67 55 122 32 53 78 145 103 204 60
140 165 334 182 334 16 0 32 -42 32 -84 0 -18 -13 -58 -30 -89 -63 -119 -19
-207 104 -207 83 0 137 79 114 168 -7 24 -22 41 -60 64 -73 45 -108 104 -108
183 0 69 4 77 101 185 37 41 100 129 141 195 71 116 92 136 109 105 11 -23 59
-261 59 -296 0 -30 -25 -64 -47 -64 -6 0 -23 -14 -37 -31 -51 -60 -26 -157 52
-202 29 -17 39 -18 71 -9 20 7 48 23 61 37 13 14 34 25 47 25 22 0 23 3 23 75
0 73 -1 75 -24 75 -30 0 -93 36 -106 60 -6 10 -10 35 -10 54 0 20 -14 98 -31
174 -27 121 -29 144 -20 196 6 32 8 63 5 67 -12 21 -36 6 -67 -43z"/>
<path d="M205 3728 c-12 -33 -88 -341 -105 -425 -22 -105 -26 -243 -9 -325 13
-65 29 -109 80 -213 l38 -80 5 -215 c5 -244 18 -332 73 -480 37 -99 74 -160
98 -160 27 0 25 20 -10 122 -20 57 -43 134 -51 171 -17 84 -19 208 -2 225 24
24 118 14 188 -19 154 -74 251 -87 352 -49 69 26 148 105 183 183 25 57 62
234 51 245 -3 3 -29 -2 -57 -11 -28 -10 -77 -17 -108 -17 -101 0 -218 -18
-262 -41 -23 -11 -86 -63 -140 -114 -107 -103 -165 -133 -195 -103 -14 14 -13
22 11 84 44 110 129 254 190 321 69 76 165 127 270 143 196 30 262 59 353 153
111 116 156 253 127 389 -14 70 -55 146 -82 155 -6 3 -19 -9 -27 -26 -28 -53
-98 -99 -219 -146 -64 -24 -136 -55 -160 -70 -104 -60 -162 -161 -173 -298 -8
-108 -8 -107 -93 -205 -95 -110 -164 -218 -192 -300 -22 -67 -43 -92 -61 -74
-7 7 -9 48 -5 119 4 101 8 117 60 253 109 284 103 403 -32 644 -27 48 -54 107
-61 132 -12 43 -26 56 -35 32z"/>
<path d="M6176 2879 c-121 -20 -265 -129 -364 -276 -23 -34 -71 -87 -107 -119
-64 -57 -74 -76 -33 -69 116 23 242 27 405 15 151 -11 176 -11 189 2 17 17 36
149 22 163 -5 5 -58 11 -119 13 -76 3 -109 8 -107 16 6 19 107 64 183 81 83
19 84 20 92 118 l6 67 -59 -1 c-32 -1 -81 -5 -108 -10z"/>
<path d="M5650 2054 c-204 -55 -354 -135 -487 -259 -117 -109 -187 -201 -273
-359 -64 -119 -85 -148 -146 -205 -82 -76 -350 -245 -669 -421 -27 -15 -106
-60 -175 -100 -335 -194 -380 -214 -388 -178 -4 21 104 147 174 202 30 23 94
64 142 91 118 65 225 139 266 185 83 92 115 196 83 272 -23 56 -54 71 -135 66
-87 -5 -158 -39 -245 -118 -106 -98 -139 -156 -243 -432 -57 -154 -86 -210
-146 -284 -72 -90 -133 -129 -323 -211 -197 -86 -267 -98 -434 -78 -64 8 -147
23 -186 34 -87 26 -108 27 -103 4 10 -55 393 -120 773 -132 284 -8 670 3 810
23 397 59 732 198 975 405 61 53 80 86 80 139 0 51 -27 84 -94 116 -185 88
-403 11 -682 -241 -209 -188 -266 -230 -405 -297 -152 -72 -469 -122 -702
-110 -166 9 -165 18 8 95 265 116 313 138 430 200 66 34 165 86 220 115 401
209 704 382 900 512 77 51 164 89 230 102 33 6 146 15 250 20 224 11 328 34
470 105 156 78 293 222 382 402 44 88 48 102 48 169 0 66 -3 75 -31 111 -51
62 -85 77 -189 80 -72 2 -109 -2 -185 -23z"/>
<path d="M1056 1965 c-30 -31 -73 -231 -83 -385 -7 -116 10 -288 38 -389 29
-104 88 -226 141 -289 111 -132 431 -375 473 -359 13 6 15 48 15 324 0 278 -3
329 -20 406 -30 136 -76 213 -184 310 -146 132 -179 168 -250 275 -59 89 -89
122 -110 122 -2 0 -11 -7 -20 -15z"/>
<path d="M546 1598 c-21 -30 -20 -81 2 -100 80 -71 185 24 114 105 -23 26 -96
23 -116 -5z"/>
<path d="M3080 1540 c-127 -107 -220 -149 -545 -245 -136 -40 -264 -106 -320
-166 -50 -54 -87 -125 -106 -204 -41 -175 -111 -301 -225 -402 -61 -55 -74
-81 -32 -67 11 3 64 34 117 69 162 105 167 107 326 116 175 10 256 24 370 61
250 81 384 186 477 373 67 134 97 262 98 413 0 64 -3 76 -25 97 -13 14 -31 25
-38 25 -8 0 -52 -31 -97 -70z m-130 -348 c0 -10 -31 -50 -68 -88 -130 -132
-356 -242 -536 -260 -92 -9 -95 9 -19 104 53 65 123 96 418 181 39 12 97 34
130 50 72 35 75 36 75 13z"/>
<path d="M5237 1023 c-25 -7 -49 -59 -42 -93 24 -107 191 -73 171 36 -10 53
-60 75 -129 57z"/>
</g>
</svg>
